<?xml version="1.0" standalone="no"?>
<!DOCTYPE svg PUBLIC "-//W3C//DTD SVG 20010904//EN"
 "http://www.w3.org/TR/2001/REC-SVG-20010904/DTD/svg10.dtd">
<svg version="1.0" xmlns="http://www.w3.org/2000/svg"
 width="1081.000000pt" height="1081.000000pt" viewBox="0 0 1081.000000 1081.000000"
 preserveAspectRatio="xMidYMid meet">
<metadata>
Created by potrace 1.14, written by Peter Selinger 2001-2017
</metadata>
<g transform="translate(0.000000,1081.000000) scale(0.100000,-0.100000)"
fill="#000000" stroke="none">
<path d="M5735 9235 c-7 -61 -11 -63 -79 -28 -27 14 -31 14 -43 -3 -24 -33
-15 -49 37 -69 28 -11 50 -22 50 -25 0 -3 -16 -21 -35 -40 -41 -40 -43 -52
-11 -74 24 -15 26 -14 59 24 19 22 36 40 40 40 3 0 17 -20 31 -45 30 -50 32
-51 64 -29 l23 16 -26 43 c-30 51 -31 65 -7 65 9 0 33 5 53 10 33 9 35 13 31
41 -4 30 -6 31 -41 25 -20 -3 -47 -9 -60 -13 -24 -6 -24 -6 -18 55 l5 62 -33
0 c-32 0 -33 -1 -40 -55z"/>
<path d="M5080 9253 c-35 -4 -36 -5 -84 -121 -27 -64 -51 -120 -55 -124 -3 -3
-42 40 -86 97 -84 109 -92 114 -154 96 -22 -6 -18 -13 89 -145 111 -137 112
-138 99 -169 -7 -18 -41 -95 -76 -172 -34 -77 -61 -140 -60 -140 1 -1 23 0 48
3 l46 4 54 129 c29 71 56 129 59 129 3 0 43 -49 89 -110 l85 -109 45 6 c25 3
47 7 49 8 1 1 -50 66 -113 144 -63 77 -115 147 -115 154 0 6 32 82 70 167 39
85 70 156 70 157 0 2 -6 2 -12 1 -7 -1 -29 -3 -48 -5z"/>
<path d="M4440 9141 c-17 -5 -24 -14 -23 -27 2 -18 139 -557 147 -581 6 -15
89 5 83 21 -2 6 -37 143 -78 304 -78 308 -74 299 -129 283z"/>
<path d="M4027 9005 c-104 -40 -191 -76 -194 -79 -4 -4 12 -59 22 -74 1 -1 39
12 84 29 44 18 83 30 84 28 3 -3 147 -377 186 -481 l10 -27 41 16 c22 9 39 21
37 27 -62 157 -187 488 -187 495 0 5 24 18 53 29 117 45 107 37 95 76 -7 22
-18 36 -27 35 -9 0 -101 -33 -204 -74z"/>
<path d="M6400 8807 l-212 -261 34 -12 c51 -19 61 -17 86 19 12 17 31 42 41
54 l19 22 121 -40 121 -41 0 -73 0 -73 45 -15 45 -16 -5 217 c-3 119 -8 271
-11 338 l-6 121 -33 10 -33 11 -212 -261z m206 -164 c-4 -4 -158 42 -178 54
-7 4 28 51 141 193 l36 45 3 -144 c1 -79 0 -146 -2 -148z"/>
<path d="M3505 8753 c-88 -51 -165 -97 -172 -101 -10 -6 96 -199 284 -514 l22
-37 175 102 c184 107 180 102 143 151 -14 19 -20 17 -147 -58 -151 -87 -137
-88 -194 16 l-37 67 38 24 c21 13 72 43 115 67 l76 43 -16 33 c-9 19 -20 34
-26 34 -6 0 -60 -29 -121 -65 l-110 -64 -47 82 c-56 96 -67 77 102 174 63 36
116 67 118 68 5 4 -26 63 -35 68 -5 2 -80 -38 -168 -90z"/>
<path d="M7055 8816 c-50 -21 -91 -70 -150 -178 -58 -106 -85 -173 -85 -211 0
-54 23 -103 69 -148 81 -79 183 -89 275 -28 25 17 48 35 51 40 3 4 -13 18 -35
29 l-41 21 -26 -21 c-34 -26 -97 -26 -141 0 -33 20 -62 71 -62 110 0 34 118
253 152 282 43 37 87 44 133 22 46 -21 75 -67 75 -116 0 -31 5 -39 36 -57 20
-12 39 -20 41 -17 12 12 14 91 3 130 -26 94 -111 156 -211 156 -30 -1 -68 -7
-84 -14z"/>
<path d="M7485 8418 c-153 -193 -167 -213 -181 -269 -25 -97 25 -192 128 -243
92 -46 176 -28 254 55 22 24 92 109 154 188 l114 144 -33 29 -32 29 -143 -178
c-79 -98 -155 -184 -170 -191 -104 -47 -224 61 -182 163 8 19 74 109 145 199
72 90 131 167 131 171 0 7 -52 54 -60 54 -3 0 -59 -68 -125 -151z"/>
<path d="M3058 8465 c-16 -13 -28 -26 -28 -28 0 -2 67 -82 149 -178 83 -95
149 -174 148 -175 -1 -2 -119 33 -261 77 -142 43 -261 79 -265 79 -3 -1 -19
-11 -35 -24 l-29 -24 203 -236 c112 -130 207 -236 211 -236 4 0 20 11 36 24
25 21 26 25 13 42 -8 10 -75 87 -147 173 -73 85 -132 156 -130 157 2 2 113
-30 248 -71 134 -41 253 -75 265 -75 11 0 31 11 43 24 l23 24 -203 236 c-111
130 -205 236 -208 236 -3 0 -18 -12 -33 -25z"/>
<path d="M7913 7909 c-128 -111 -233 -205 -233 -210 0 -4 11 -20 24 -36 22
-26 25 -27 43 -12 10 9 87 75 171 148 84 73 155 131 157 129 2 -1 -30 -115
-71 -252 -41 -137 -74 -254 -74 -260 0 -6 11 -24 23 -40 l24 -29 229 198 c126
108 233 201 238 205 9 9 -30 70 -45 70 -5 0 -87 -67 -181 -149 -95 -82 -174
-149 -175 -148 -1 1 34 120 78 265 l80 262 -21 30 c-12 17 -24 30 -28 30 -4 0
-112 -91 -239 -201z"/>
<path d="M2531 7964 c-12 -15 -21 -30 -21 -34 0 -5 74 -67 165 -140 91 -73
174 -143 185 -157 46 -58 13 -159 -64 -197 -67 -33 -83 -24 -421 250 l-41 33
-27 -34 -27 -35 174 -139 c194 -155 196 -156 254 -170 92 -20 191 35 241 134
31 63 27 143 -12 199 -23 35 -361 316 -379 316 -4 0 -16 -12 -27 -26z"/>
<path d="M4592 5783 c-469 -985 -852 -1793 -852 -1797 0 -3 172 -6 383 -6
l382 0 464 973 c256 534 467 975 471 980 3 4 108 -206 232 -465 124 -260 225
-474 224 -476 -2 -1 -146 54 -321 123 -175 69 -319 124 -321 122 -15 -14 -273
-622 -267 -628 5 -3 321 -147 704 -318 l696 -311 382 0 c303 0 382 3 378 13
-3 6 -368 775 -812 1707 -445 932 -827 1735 -849 1784 l-42 88 -852 -1789z"/>
<path d="M8375 7392 c-127 -76 -247 -147 -268 -159 l-36 -22 100 -170 c56 -94
105 -171 110 -171 14 0 59 31 59 40 0 4 -34 65 -75 135 -41 70 -73 130 -70
135 7 11 144 90 156 90 5 0 9 -3 9 -7 0 -5 29 -56 63 -115 l63 -107 36 22 37
22 -43 70 c-23 39 -54 90 -68 116 l-27 45 80 48 c43 26 83 45 87 42 5 -3 39
-58 77 -123 90 -155 80 -145 121 -121 l35 20 -19 32 c-10 17 -56 95 -102 174
-46 78 -87 142 -90 141 -3 0 -109 -62 -235 -137z"/>
<path d="M2165 7388 c-52 -18 -96 -59 -121 -112 -44 -94 -26 -187 50 -254 46
-40 237 -142 289 -154 86 -19 171 19 223 100 24 40 29 57 29 113 0 55 -5 73
-30 114 -16 27 -35 50 -41 52 -7 2 -22 -12 -34 -31 l-22 -36 21 -26 c15 -19
21 -41 21 -76 0 -43 -5 -55 -33 -83 -21 -21 -48 -36 -72 -41 -34 -6 -51 0
-153 52 -171 88 -208 140 -170 236 14 37 66 68 115 68 35 0 41 4 57 37 14 29
15 38 4 44 -18 12 -96 10 -133 -3z"/>
<path d="M8850 7009 c-13 -6 -25 -11 -27 -13 -1 -1 11 -38 28 -81 16 -43 26
-82 22 -86 -4 -4 -116 -49 -248 -100 -132 -51 -242 -94 -244 -96 -4 -3 17 -83
23 -83 1 0 117 45 256 99 l255 99 33 -83 33 -83 38 15 39 15 -40 102 c-22 55
-57 147 -79 204 -22 56 -46 102 -52 101 -7 0 -23 -5 -37 -10z"/>
<path d="M2073 6721 c-169 -4 -266 -10 -273 -17 -6 -6 -12 -24 -13 -39 -2 -26
21 -48 252 -238 l254 -209 14 32 c20 48 16 63 -20 88 -17 12 -42 31 -54 41
l-23 19 42 121 42 121 73 0 c79 0 75 -3 97 68 7 21 6 22 -61 20 -37 -1 -186
-4 -330 -7z m127 -88 c0 -19 -55 -173 -62 -173 -9 0 -228 169 -228 176 0 2 65
4 145 4 80 0 145 -3 145 -7z"/>
<path d="M8795 6364 c-154 -41 -285 -76 -292 -78 -8 -4 -8 -15 -1 -46 8 -30
15 -39 27 -36 9 3 142 37 296 77 154 39 284 75 288 79 13 11 -7 75 -24 76 -8
1 -140 -31 -294 -72z"/>
<path d="M9022 6058 l-133 -110 -169 75 -170 75 0 -33 c0 -18 3 -40 6 -49 3
-8 62 -38 130 -67 68 -28 124 -55 124 -59 0 -3 -47 -43 -105 -89 -95 -74 -105
-85 -104 -114 1 -72 5 -71 158 53 l143 118 100 -44 c55 -25 129 -58 164 -74
l64 -29 -1 27 c-2 65 -9 72 -124 119 -61 25 -114 49 -119 53 -4 5 37 44 92 87
90 69 101 82 101 110 1 34 -7 63 -18 62 -3 0 -66 -50 -139 -111z"/>
<path d="M1500 5580 c0 -33 4 -40 23 -44 20 -4 635 -26 720 -26 36 0 37 1 37
39 l0 40 -52 5 c-47 5 -630 26 -700 26 -26 0 -28 -3 -28 -40z"/>
<path d="M9125 5274 c-8 -20 -15 -40 -15 -45 0 -21 -22 -16 -60 16 -23 19 -43
35 -45 35 -1 0 -11 -12 -20 -27 l-18 -27 43 -36 43 -37 -46 -32 c-26 -18 -47
-34 -47 -37 0 -3 7 -15 16 -29 l15 -24 47 30 c25 16 49 29 52 29 4 0 12 -25
19 -55 12 -53 14 -55 39 -49 41 10 41 10 26 67 -7 28 -14 53 -14 55 0 1 27 2
60 2 59 0 60 0 60 29 0 32 -17 41 -82 41 l-37 0 19 46 c25 58 25 70 -2 78 -35
9 -37 8 -53 -30z"/>
<path d="M2085 4815 c-71 -69 -135 -125 -141 -125 -6 0 -80 25 -164 55 -84 30
-156 55 -161 55 -9 0 -1 -56 12 -80 4 -8 62 -33 130 -55 l122 -41 -97 -89 -97
-90 6 -45 c4 -25 8 -47 10 -49 2 -2 61 50 130 115 69 66 131 120 138 122 7 1
87 -24 177 -57 91 -32 166 -56 168 -52 1 4 -1 25 -6 47 l-8 39 -129 44 c-72
24 -131 45 -133 46 -3 3 61 64 157 151 43 40 44 41 37 87 -4 26 -10 47 -14 46
-4 0 -65 -56 -137 -124z"/>
<path d="M8566 4802 c-3 -5 -8 -26 -11 -48 -6 -39 -6 -39 53 -77 l59 -37 -32
-123 -32 -122 -75 -9 -75 -8 -10 -45 -11 -45 42 6 c22 3 173 18 334 33 l292
27 10 35 c5 20 6 38 2 42 -4 3 -122 86 -262 184 -140 98 -260 182 -267 187 -6
5 -14 5 -17 0z m386 -383 c-21 -4 -88 -10 -150 -14 -108 -6 -114 -6 -109 12 3
10 11 38 17 63 6 25 16 59 21 77 l10 32 124 -82 123 -82 -36 -6z"/>
<path d="M2060 4264 c-151 -52 -278 -99 -283 -103 -6 -6 8 -65 18 -78 2 -3
588 196 593 202 2 2 -1 20 -8 39 -7 23 -18 36 -28 35 -9 0 -141 -43 -292 -95z"/>
<path d="M8420 4155 c-50 -23 -79 -53 -106 -110 -42 -88 -25 -184 44 -249 l30
-28 16 30 c21 40 20 47 -5 81 -12 16 -20 44 -21 68 -1 79 51 133 127 133 37 0
245 -88 279 -118 54 -50 59 -132 10 -183 -27 -29 -96 -55 -113 -45 -7 5 -41
-61 -41 -79 0 -3 24 -5 53 -5 110 0 196 71 219 182 10 48 9 62 -7 104 -27 72
-75 112 -210 173 -136 61 -212 74 -275 46z"/>
<path d="M2263 3920 c-122 -60 -230 -111 -240 -114 -16 -5 -26 8 -58 73 l-38
79 -34 -16 c-18 -9 -33 -20 -33 -24 0 -8 178 -388 185 -396 3 -3 63 25 73 33
2 2 -13 35 -33 75 -20 40 -34 77 -32 84 3 6 113 62 245 125 l241 114 -20 39
c-11 21 -23 38 -27 37 -4 0 -107 -49 -229 -109z"/>
<path d="M2608 3699 l-27 -20 91 -131 c70 -101 88 -132 77 -139 -8 -4 -43 -28
-78 -52 l-64 -45 -27 36 c-15 21 -48 70 -75 110 -26 39 -51 72 -54 72 -3 0
-19 -11 -35 -23 l-29 -24 76 -110 76 -109 -77 -52 c-42 -29 -80 -52 -83 -52
-3 0 -44 56 -90 125 -46 68 -88 124 -94 125 -5 0 -22 -10 -37 -23 l-27 -22
112 -162 c62 -89 114 -162 117 -163 11 0 506 345 509 355 4 13 -211 325 -224
325 -5 -1 -22 -10 -37 -21z"/>
<path d="M8114 3635 c-74 -44 -131 -163 -115 -238 10 -42 34 -88 59 -110 11
-11 101 -74 199 -142 l178 -124 27 31 c15 17 25 34 23 38 -2 4 -75 56 -162
115 -181 124 -218 156 -233 201 -19 57 30 143 94 164 50 16 82 0 272 -130 97
-66 182 -119 188 -117 6 3 19 18 28 34 l17 30 -179 122 c-99 67 -196 129 -215
137 -55 23 -133 18 -181 -11z"/>
<path d="M2755 3040 l-220 -220 33 -32 32 -33 165 165 c91 91 165 162 165 159
0 -3 -27 -124 -59 -270 l-60 -264 30 -30 30 -30 218 225 219 225 -29 30 -29
30 -165 -165 c-90 -90 -162 -155 -159 -144 2 10 29 131 59 269 l54 250 -26 27
c-15 16 -29 28 -32 28 -4 0 -105 -99 -226 -220z"/>
<path d="M7795 3230 l-29 -31 164 -164 c157 -157 162 -163 124 -155 -21 5
-142 32 -268 60 l-230 51 -28 -29 -29 -28 220 -224 219 -225 33 33 34 32 -165
166 c-151 152 -162 165 -130 159 19 -4 141 -32 270 -61 l235 -53 29 28 28 29
-217 221 c-120 121 -221 221 -224 221 -4 0 -20 -14 -36 -30z"/>
<path d="M7200 2721 c-85 -60 -156 -113 -157 -118 -2 -6 6 -23 19 -37 l23 -27
123 86 c68 47 127 85 131 85 5 0 32 -33 60 -74 l51 -74 -110 -77 -111 -76 20
-32 c12 -18 25 -31 29 -30 5 1 44 26 88 56 43 30 91 62 106 71 l27 17 51 -76
c28 -41 48 -80 45 -85 -3 -5 -60 -46 -125 -91 -66 -45 -120 -84 -120 -86 0
-10 35 -63 41 -63 12 0 329 221 328 228 0 13 -344 505 -354 508 -5 1 -80 -46
-165 -105z"/>
<path d="M3405 2757 c-49 -23 -83 -63 -210 -251 l-120 -178 30 -24 c17 -13 33
-24 36 -24 3 0 60 80 126 178 132 193 145 208 193 222 60 17 154 -42 166 -105
8 -47 -12 -86 -142 -277 -111 -162 -116 -172 -98 -185 50 -38 49 -38 117 59
159 230 197 293 209 350 11 52 10 58 -16 112 -39 80 -112 129 -200 133 -37 2
-73 -2 -91 -10z"/>
<path d="M6768 2474 c-16 -8 -28 -18 -28 -22 0 -4 52 -115 115 -247 l113 -240
-76 -39 c-42 -21 -78 -40 -80 -41 -2 -2 5 -19 15 -38 l18 -35 190 90 c105 49
193 93 198 97 11 11 -13 71 -29 71 -8 0 -46 -16 -85 -35 l-70 -36 -68 144
c-38 79 -90 189 -116 245 -26 56 -53 102 -59 102 -6 -1 -23 -8 -38 -16z"/>
<path d="M3913 2460 c-24 -10 -55 -31 -70 -46 -26 -26 -26 -27 -7 -41 34 -25
62 -26 89 -5 41 32 78 36 130 13 35 -15 49 -29 61 -58 23 -53 14 -92 -49 -225
-43 -92 -62 -122 -89 -138 -76 -48 -179 5 -194 101 -6 35 -12 43 -40 55 -18 8
-36 14 -39 14 -3 0 -5 -26 -5 -57 0 -103 57 -179 159 -210 57 -17 112 -10 167
22 50 29 76 69 139 210 43 96 50 119 50 177 0 58 -4 72 -30 110 -60 86 -180
120 -272 78z"/>
<path d="M6425 2338 c-16 -6 -31 -12 -32 -13 -3 -2 196 -587 201 -592 3 -3 68
17 75 23 8 7 -194 594 -204 593 -5 0 -23 -5 -40 -11z"/>
<path d="M4343 2299 c3 -24 18 -172 33 -329 15 -157 32 -290 38 -296 6 -6 23
-14 37 -18 25 -5 37 9 215 266 104 149 190 274 192 278 1 4 -18 11 -43 17
l-45 10 -37 -58 c-21 -33 -45 -59 -53 -59 -9 0 -47 9 -85 19 -39 11 -89 24
-111 30 l-42 11 -7 74 c-6 70 -8 74 -33 79 -15 3 -36 9 -46 13 -18 7 -19 4
-13 -37z m217 -245 c36 -9 68 -20 71 -23 4 -3 -30 -61 -76 -129 l-82 -123 -6
68 c-4 37 -9 106 -13 152 l-7 84 24 -7 c13 -3 53 -14 89 -22z"/>
<path d="M6241 2276 l-45 -11 -44 -134 -45 -135 -36 40 c-20 21 -64 70 -98
107 l-62 69 -45 -14 -46 -13 125 -132 c69 -73 125 -138 125 -145 0 -7 -25 -82
-55 -167 -31 -85 -53 -156 -51 -158 3 -3 23 -2 44 2 l40 6 43 125 c24 68 46
124 49 124 3 0 44 -43 90 -95 l85 -96 40 7 c22 3 43 9 47 13 4 3 -47 62 -112
131 -66 69 -119 130 -119 135 -1 6 26 86 59 179 34 93 59 170 58 171 -2 1 -23
-3 -47 -9z"/>
<path d="M5233 1791 l-22 -19 29 -38 c16 -22 30 -44 30 -51 0 -6 -23 -17 -51
-24 -49 -13 -50 -14 -45 -43 4 -16 8 -32 11 -34 2 -2 25 3 51 12 26 9 51 16
56 16 4 0 8 -27 8 -60 0 -59 0 -60 29 -60 27 0 29 2 35 59 l7 60 54 -19 54
-18 10 30 c6 17 10 33 8 35 -2 2 -27 11 -56 21 l-52 18 35 46 36 47 -27 21
-27 21 -18 -25 c-10 -13 -27 -35 -37 -47 l-18 -22 -32 46 c-18 26 -35 47 -39
47 -4 -1 -17 -9 -29 -19z"/>
</g>
</svg>
